# xmcd CD database file
#
# Track frame offsets:
#	150
#	13615
#	30465
#	51347
#	66007
#	83772
#	106400
#	128435
#	144957
#	164287
#	181990
#	195562
#	217847
#
# Disc length: 3193 seconds
#
# Revision: 0
# Processed by: cddbd v1.5.1PL0 Copyright (c) Steve Scherf et al.
# Submitted via: CDex 1.51
#
DISCID=a10c770d
DTITLE=Tom Conway - Hot Gypsy Nights
DYEAR=2002
DGENRE=Jazz
TTITLE0=Noto Swing
TTITLE1=Gypsy Fire
TTITLE2=Nuits des Saint Germain des Pres
TTITLE3=Stompin At Decca
TTITLE4=Destine
TTITLE5=Nuages
TTITLE6=Swing 85
TTITLE7=Ombre
TTITLE8=Douce Ambience
TTITLE9=Pent Up House
TTITLE10=Daphne
TTITLE11=Monticello
TTITLE12=Coquette
EXTD=YEAR: 2002
EXTT0=
EXTT1=
EXTT2=
EXTT3=
EXTT4=
EXTT5=
EXTT6=
EXTT7=
EXTT8=
EXTT9=
EXTT10=
EXTT11=
EXTT12=
PLAYORDER=
